<svg width="36" height="36" viewBox="0 0 36 36" fill="none" xmlns="http://www.w3.org/2000/svg">
<path d="M4.32931 31.6789C5.09735 28.7446 6.10181 25.8671 8.40875 21.6093M8.40875 21.6093C12.9072 13.3066 18.7038 6.45709 29.6914 3.23457C30.1403 3.10293 30.5947 3.42625 30.6114 3.89368C31.0531 16.2473 19.8997 20.7027 8.40875 21.6093Z" stroke="black" stroke-width="2.24252" stroke-linecap="round"/>
<path d="M19.8012 12.4725C21.8632 12.271 24.5561 12.2735 27.6994 12.8208C27.2071 13.5287 26.6875 14.1648 26.3207 14.5691C24.6958 13.7559 22.1193 13.0023 19.8012 12.4725Z" fill="black" stroke="black" stroke-width="1.49501" stroke-linecap="round"/>
<path d="M25.4521 9.00872C26.6109 8.86245 27.9481 8.78085 29.438 8.82057C29.2271 9.14879 29.0173 9.44196 28.8467 9.66334C27.9324 9.38611 26.7037 9.16846 25.4521 9.00872Z" fill="black" stroke="black" stroke-width="1.49501" stroke-linecap="round"/>
<path d="M9.40395 31.4048C11.1783 29.0871 16.5919 33.35 16.4682 30.3639C16.3017 26.342 20.8653 33.818 22.4741 30.8636C23.517 28.9483 22.242 25.2604 24.1092 25.1831C25.9764 25.1057 27.9827 28.3893 28.1219 31.7502" stroke="black" stroke-width="2.24252" stroke-linecap="round"/>
</svg>
