<svg width="24" height="24" viewBox="0 0 24 24" fill="none" xmlns="http://www.w3.org/2000/svg">
<path d="M19.0612 18.6703L16.9212 14.4004L14.7812 18.6703" stroke="#171717" stroke-width="1.5" stroke-linecap="round" stroke-linejoin="round"/>
<path d="M15.1719 17.9102H18.6919" stroke="#171717" stroke-width="1.5" stroke-linecap="round" stroke-linejoin="round"/>
<path d="M19.9216 21.0198C19.0816 21.6298 18.0515 21.9998 16.9315 21.9998C14.1315 21.9998 11.8516 19.7298 11.8516 16.9198C11.8516 14.1198 14.1215 11.8398 16.9315 11.8398C19.7315 11.8398 22.0116 14.1098 22.0116 16.9198" stroke="#171717" stroke-width="1.5" stroke-linecap="round" stroke-linejoin="round"/>
<path d="M11.95 8.93024C12 11.0002 11 12.0003 8.92999 11.9503H5.00999C2.99999 12.0003 2 11.0002 2 8.93024V5.01025C2 2.99025 3 1.99023 5.02 1.99023H8.94C11.01 1.99023 12.01 2.99025 11.96 5.01025" stroke="#171717" stroke-width="1.5" stroke-linecap="round" stroke-linejoin="round"/>
<path d="M9.01312 5.84961H4.95312" stroke="#171717" stroke-width="1.5" stroke-linecap="round" stroke-linejoin="round"/>
<path d="M6.97266 5.16992V5.84991" stroke="#171717" stroke-width="1.5" stroke-linecap="round" stroke-linejoin="round"/>
<path d="M7.99141 5.83984C7.99141 7.58984 6.62141 9.00983 4.94141 9.00983" stroke="#171717" stroke-width="1.5" stroke-linecap="round" stroke-linejoin="round"/>
<path d="M9.01015 9.01001C8.28015 9.01001 7.62016 8.62 7.16016 8" stroke="#171717" stroke-width="1.5" stroke-linecap="round" stroke-linejoin="round"/>
<path d="M2 15C2 18.87 5.13 22 9 22L7.95 20.25" stroke="#171717" stroke-width="1.5" stroke-linecap="round" stroke-linejoin="round"/>
<path d="M22 9C22 5.13 18.87 2 15 2L16.05 3.75" stroke="#171717" stroke-width="1.5" stroke-linecap="round" stroke-linejoin="round"/>
</svg>
