<svg xmlns="http://www.w3.org/2000/svg" viewBox="0 0 36 36">
  <rect width="36" height="36" rx="8" fill="#171925"/>
  <g fill="none" stroke="#fff" stroke-linecap="round">
    <path d="M4.33 31.68c.77-2.94 1.77-5.81 4.08-10.07C12.91 13.31 18.7 6.46 29.69 3.23c.45-.13.9.2.92.66.44 12.36-10.71 16.81-22.2 17.72" stroke-width="2.24"/>
    <path d="M19.8 12.47c2.06-.2 4.76-.2 7.9.35-.5.71-1.01 1.34-1.38 1.75-1.62-.81-4.2-1.57-6.52-2.1Z" fill="#fff" stroke-width="1.5"/>
    <path d="M25.45 9.01c1.16-.15 2.5-.23 3.99-.19-.21.33-.42.62-.59.84-.92-.27-2.15-.49-3.4-.65Z" fill="#fff" stroke-width="1.5"/>
    <path d="M9.4 31.4c1.78-2.31 7.19 1.95 7.07-1.04-.17-4.02 4.4 3.46 6.01.5 1.04-1.91-.24-5.6 1.63-5.68 1.87-.07 3.87 3.21 4.01 6.57" stroke-width="2.24"/>
  </g>
</svg>
